<svg width="71" height="71" viewBox="0 0 71 71" fill="none" xmlns="http://www.w3.org/2000/svg">
<path d="M39.4883 55.8936C39.4883 55.8936 40.5822 46.0488 51.7396 43.5329C60.2718 41.6733 69.0228 43.8611 69.0228 43.8611C69.0228 43.8611 63.3347 72.4111 40.5822 61.363" stroke="#FF671D" stroke-width="2.4" stroke-miterlimit="10" stroke-linecap="round" stroke-linejoin="round"/>
<path d="M13.236 26.6872C5.46947 24.937 1.20338 25.2651 1.20338 25.2651C1.20338 25.2651 0.218891 66.1759 28.5501 54.7996C34.0195 52.6119 35.1134 64.6445 35.1134 64.6445" stroke="#FF671D" stroke-width="2.4" stroke-miterlimit="10" stroke-linecap="round" stroke-linejoin="round"/>
<path d="M35.2227 66.8325C35.2227 66.8325 41.4577 56.5501 55.8968 51.5183" stroke="#FF671D" stroke-width="2.4" stroke-miterlimit="10" stroke-linecap="round" stroke-linejoin="round"/>
<path d="M35.1133 47.1426V69.02" stroke="#FF671D" stroke-width="2.4" stroke-miterlimit="10" stroke-linecap="square" stroke-linejoin="round"/>
<path d="M24.1738 12.1387V4.48156C24.1738 2.62198 25.5959 1.19995 27.4554 1.19995C29.2056 1.19995 30.7371 2.62198 30.7371 4.48156V12.1387" stroke="#FF671D" stroke-width="2.4" stroke-miterlimit="10" stroke-linecap="square" stroke-linejoin="round"/>
<path d="M39.4883 12.1387V4.48156C39.4883 2.62198 40.9103 1.19995 42.7699 1.19995C44.5201 1.19995 46.0515 2.62198 46.0515 4.48156V12.1387" stroke="#FF671D" stroke-width="2.4" stroke-miterlimit="10" stroke-linecap="square" stroke-linejoin="round"/>
<path d="M19.7988 16.5144V30.7347C19.7988 37.298 25.1588 42.7673 31.8314 42.7673H38.3946C44.9579 42.7673 50.4272 37.298 50.4272 30.7347V16.5144H19.7988Z" stroke="#FF671D" stroke-width="2.4" stroke-miterlimit="10" stroke-linecap="square" stroke-linejoin="round"/>
<path d="M28.5527 25.2649H41.6792" stroke="#FF671D" stroke-width="2.4" stroke-miterlimit="10" stroke-linecap="square" stroke-linejoin="round"/>
<path d="M28.5527 31.8284H41.6792" stroke="#FF671D" stroke-width="2.4" stroke-miterlimit="10" stroke-linecap="square" stroke-linejoin="round"/>
</svg>
