<svg width="81" height="71" viewBox="0 0 81 71" fill="none" xmlns="http://www.w3.org/2000/svg">
<path d="M38.252 16.8985C41.2662 13.633 45.5364 11.6235 50.1833 11.6235C59.226 11.6235 66.5105 18.908 66.5105 27.9507C66.5105 29.3322 66.3849 30.5881 66.0081 31.8441C67.0128 31.5929 68.0176 31.3417 69.0223 31.3417C74.5484 31.3417 79.0698 35.8631 79.0698 41.3892C79.0698 46.9153 74.5484 51.4366 69.0223 51.4366H63.9986" stroke="#FF671D" stroke-width="2.4" stroke-miterlimit="10" stroke-linecap="round" stroke-linejoin="round"/>
<path d="M16.2704 50.4325C7.35329 46.288 1.19922 37.3708 1.19922 26.9466C1.19922 12.7545 12.7538 1.19995 26.9459 1.19995C35.235 1.19995 42.645 5.09334 47.4176 11.2474" stroke="#FF671D" stroke-width="2.4" stroke-miterlimit="10" stroke-linecap="round" stroke-linejoin="round"/>
<path d="M51.4361 61.4848H50.1801C46.0356 61.4848 42.6445 58.0938 42.6445 53.9492V48.9255C42.6445 44.7809 46.0356 41.3899 50.1801 41.3899H51.4361C55.5806 41.3899 58.9717 44.7809 58.9717 48.9255V53.9492C58.9717 58.0938 55.5806 61.4848 51.4361 61.4848Z" stroke="#FF671D" stroke-width="2.4" stroke-miterlimit="10" stroke-linecap="round" stroke-linejoin="round"/>
<path d="M63.9961 60.2285C63.9961 58.0934 65.6288 56.4607 67.7639 56.4607C69.899 56.4607 71.5317 58.0934 71.5317 60.2285C71.5317 60.9821 71.1549 61.8612 70.6525 62.3636L63.9961 69.02H71.5317" stroke="#FF671D" stroke-width="2.4" stroke-miterlimit="10" stroke-linecap="round" stroke-linejoin="round"/>
<path d="M37.2453 56.4611C36.2405 59.3497 33.4775 61.4848 30.0865 61.4848H28.8305C24.6859 61.4848 21.2949 58.0938 21.2949 53.9492V48.9255C21.2949 44.7809 24.6859 41.3899 28.8305 41.3899H30.0865C33.3519 41.3899 36.1149 43.525 37.2453 46.4136" stroke="#FF671D" stroke-width="2.4" stroke-miterlimit="10" stroke-linecap="round" stroke-linejoin="round"/>
</svg>
