<svg width="70" height="71" viewBox="0 0 70 71" fill="none" xmlns="http://www.w3.org/2000/svg">
<path d="M40.2578 56.9902V62.4599H43.5396V69.0234" stroke="#FF671D" stroke-width="2.4" stroke-miterlimit="10" stroke-linecap="square" stroke-linejoin="round"/>
<path d="M31.5083 56.9902V62.4599H28.2266V69.0234" stroke="#FF671D" stroke-width="2.4" stroke-miterlimit="10" stroke-linecap="square" stroke-linejoin="round"/>
<path d="M41.3521 62.4597H38.0703" stroke="#FF671D" stroke-width="2.4" stroke-miterlimit="10" stroke-linecap="square" stroke-linejoin="round"/>
<path d="M7.44051 50.4267H4.48691C2.51784 50.4267 1.09573 48.7858 1.20512 46.8167L5.03387 4.15356C5.14327 2.51266 6.56537 1.19995 8.31566 1.19995H61.3712C63.1214 1.19995 64.5436 2.51266 64.6529 4.15356L68.4817 46.8167C68.7005 48.7858 67.169 50.4267 65.1999 50.4267H17.2859" stroke="#FF671D" stroke-width="2.4" stroke-miterlimit="10" stroke-linecap="square" stroke-linejoin="round"/>
<path d="M67.6064 53.7087L67.1688 54.6933C66.8406 55.459 66.0749 55.8966 65.1997 55.8966H4.48674C3.6116 55.8966 2.84585 55.459 2.51767 54.6933L1.9707 53.7087" stroke="#FF671D" stroke-width="2.4" stroke-miterlimit="10" stroke-linejoin="round"/>
<path d="M57.4321 18.703C58.3073 19.4687 58.7448 20.0157 59.62 20.7815L60.0576 27.345C59.1824 28.2202 58.7448 28.7671 57.8697 29.6423H46.9304C46.0553 28.8765 45.6177 28.3296 44.7426 27.5638L44.5238 21.0002C45.3989 20.1251 45.8365 19.6875 46.7116 18.703H57.4321ZM58.3073 16.5151H57.4321H46.821H45.9459L45.2895 17.1715L44.1956 18.2654L43.1017 19.3593L42.4453 20.0157V20.8908L42.6641 27.4544V28.3296L43.3205 28.9859L44.6332 30.2986L45.5083 31.1738L46.1647 31.8301H47.0398H57.9791H58.9636L59.62 31.1738L60.7139 29.9705L61.8078 28.7671L62.4642 28.1108L62.3548 27.1262L61.9172 20.5627L61.8078 19.6875L61.1515 19.1406L60.0576 18.156L58.9636 17.1715L58.3073 16.5151Z" fill="#FF671D"/>
<path d="M56.4476 6.6693C57.3228 7.43505 57.7603 7.98201 58.6355 8.74776L58.9636 14.2174C58.0885 15.0925 57.6509 15.6395 56.7758 16.5147H46.9304C46.0553 15.7489 45.6177 15.2019 44.7426 14.4362L44.6332 8.96655C45.5083 8.09141 45.9459 7.65384 46.821 6.6693H56.4476ZM57.2134 4.48145H56.3382H46.7116H45.8365L45.1802 5.1378L44.0862 6.23173L42.9923 7.32566L42.3359 7.98201V8.85716L42.4453 14.3268V15.2019L43.1017 15.8583L43.9768 16.7334L45.2895 18.0462L46.0553 18.7025H46.9304H56.7758H57.7603L58.4167 18.0462L59.5106 16.8428L60.6045 15.6395L61.2609 14.9832L61.1515 13.9986L60.8233 8.52898L60.7139 7.65384L60.0576 7.10687L59.2918 6.45052L57.8697 5.1378L57.2134 4.48145Z" fill="#FF671D"/>
<path d="M40.147 18.703C41.0221 19.5781 41.4597 20.0157 42.3349 20.8908L42.4443 27.4544C41.5691 28.3296 41.1315 28.7671 40.2564 29.6423H29.3171C28.442 28.7671 28.0044 28.3296 27.1293 27.4544L27.2387 20.8908C28.1138 20.0157 28.5514 19.5781 29.4265 18.703H40.147ZM41.0221 16.5151H40.147H29.5359H28.5514L27.895 17.1715L27.0199 18.0466L25.7072 19.3593L25.0508 20.0157V20.8908L24.9414 27.4544V28.3296L25.5978 28.9859L27.7856 31.1738L28.442 31.8301H29.4265H40.3658H41.2409L41.8973 31.1738L42.9912 30.0798L44.0851 28.9859L44.7415 28.3296V27.4544L44.6321 20.8908V20.0157L43.8664 19.25L42.7724 18.156L41.6785 17.0621L41.0221 16.5151Z" fill="#FF671D"/>
<path d="M39.6019 6.6693C40.477 7.54444 40.9146 7.98201 41.7898 8.85716L41.8992 14.3268C41.024 15.2019 40.5864 15.6395 39.7113 16.5147H29.8659C28.9908 15.6395 28.5532 15.2019 27.6781 14.3268L27.7875 8.85716C28.6626 7.98201 29.1002 7.54444 29.9753 6.6693H39.6019ZM40.477 4.48145H39.6019H29.9753H29.1002L28.4438 5.1378L27.0217 6.45052L26.256 7.21626L25.5996 7.87262V8.74776L25.4902 14.2174V15.0925L26.1466 15.7489L27.2405 16.8428L28.3344 17.9368L28.9908 18.5931H29.8659H39.7113H40.5864L41.2428 17.9368L42.3367 16.8428L43.4307 15.7489L44.087 15.0925V14.2174L43.9776 8.74776V7.87262L43.3213 7.21626L41.6804 5.68477L41.1334 5.1378L40.477 4.48145Z" fill="#FF671D"/>
<path d="M22.8637 6.6693C23.7389 7.54444 24.1764 7.98201 25.0516 8.96655L24.9422 14.4362C24.067 15.2019 23.6295 15.7489 22.7543 16.5147H12.909C12.0338 15.6395 11.5963 15.0925 10.7211 14.2174L11.0493 8.74776C11.9244 7.98201 12.362 7.43505 13.2371 6.6693H22.8637ZM23.8482 4.48145H22.9731H13.2371H12.362L11.7056 5.02841L9.62715 6.99748L9.51776 7.10687L8.97079 7.65384L8.8614 8.52898L8.53322 13.9986L8.42383 14.9832L9.08018 15.6395L10.1741 16.8428L11.2681 18.0462L11.9244 18.7025H12.909H22.7543H23.6295L24.2858 18.0462L25.3797 16.9522L26.4737 15.8583L27.13 15.2019V14.3268L27.2394 8.85716V7.98201L26.5831 7.32566L24.3952 5.02841L23.8482 4.48145Z" fill="#FF671D"/>
<path d="M22.7545 18.703C23.6296 19.5781 24.0672 20.0157 24.9423 21.0002L24.7235 27.5638C23.8484 28.3296 23.4108 28.8765 22.5357 29.6423H11.5964C10.7213 28.7671 10.2837 28.2202 9.40856 27.345L9.84612 20.7815C10.7213 20.0157 11.1588 19.4687 12.034 18.703H22.7545ZM23.739 16.5151H22.8639H12.1434H11.2682L10.6119 17.0621L9.51795 18.0466L8.42402 19.0312L7.76767 19.5781V20.5627L7.3301 27.1262L7.2207 28.1108L7.87706 28.7671L9.84612 30.955L10.0649 31.1738L10.7213 31.8301H11.7058H22.6451H23.5202L24.1766 31.1738L25.0517 30.2986L26.3644 28.9859L27.0208 28.3296V27.4544L27.2396 20.8908V20.0157L26.5832 19.3593L25.4893 18.2654L24.3954 17.1715L23.739 16.5151Z" fill="#FF671D"/>
<path d="M22.6453 31.8297C23.5204 32.7048 23.958 33.1424 24.8331 34.127L24.6143 41.7844C23.7392 42.5502 23.3016 43.0972 22.4265 43.8629H10.5027C9.62754 42.9878 9.18997 42.4408 8.31483 41.5657L8.86179 33.9082C9.73693 33.1424 10.1745 32.5955 11.0496 31.8297H22.6453ZM23.5204 29.6418H22.6453H11.0496H10.1745L9.51815 30.1888L8.42422 31.1733L7.33029 32.1579L6.67393 32.7048V33.6894L6.12697 41.3469L6.01758 42.3314L6.67393 42.9878L8.86179 45.285L9.62754 46.0508H10.6121H22.4265H23.3016L23.958 45.3944L25.2707 44.0817L26.1458 43.2066L26.8022 42.5502V41.6751L27.021 34.0176V33.1424L26.3646 32.5955L24.1768 30.2982L23.5204 29.6418Z" fill="#FF671D"/>
<path d="M40.5866 31.8297C41.4617 32.7048 41.8993 33.1424 42.7745 34.0176L42.8838 41.6751C42.0087 42.5502 41.5711 42.9878 40.696 43.8629H28.8816C28.0064 42.9878 27.5689 42.5502 26.6937 41.6751L26.8031 34.0176C27.6782 33.1424 28.1158 32.7048 28.991 31.8297H40.5866ZM41.4617 29.6418H40.5866H28.991H28.1158L27.4595 30.2982L25.2716 32.4861L24.6153 33.1424V34.0176L24.5059 41.6751V42.5502L25.1622 43.2066L27.3501 45.3944L28.0064 46.0508H28.8816H40.696H41.6805L42.3369 45.3944L44.5247 43.2066L45.1811 42.5502V41.6751L45.0717 34.0176V33.1424L44.4153 32.4861L42.2275 30.2982L41.4617 29.6418Z" fill="#FF671D"/>
<path d="M58.5241 31.8297C59.3992 32.5955 59.8368 33.1424 60.7119 33.9082L61.2589 41.5657C60.3838 42.4408 59.9462 42.9878 59.071 43.8629H47.2566C46.3815 43.0972 45.9439 42.5502 45.0688 41.7844L44.85 34.127C45.7251 33.2518 46.1627 32.8142 47.0378 31.8297H58.5241ZM59.3992 29.6418H58.5241H47.0378H46.0533L45.3969 30.2982L44.303 31.3921L43.2091 32.4861L42.5527 33.1424V34.0176L42.7715 41.6751V42.5502L43.4279 43.2066L44.5218 44.3005L45.6157 45.3944L46.2721 46.0508H47.1472H58.9617H59.9462L60.6025 45.3944L60.8213 45.1756L62.7904 42.9878L63.4468 42.3314L63.3374 41.3469L62.7904 33.6894L62.681 32.8142L62.0247 32.2673L60.9307 31.2827L59.8368 30.2982L59.3992 29.6418Z" fill="#FF671D"/>
</svg>
