<svg width="328" height="42" viewBox="0 0 328 42" fill="none" xmlns="http://www.w3.org/2000/svg">
<path d="M22.9453 13.092H36.8903L54.3215 35.0521L54.099 13.092H62.3819V42H48.3133L31.1293 20.2632L31.3519 42H22.9453V13.092Z" fill="white"/>
<path d="M105.477 31.0572C105.428 35.2011 105.304 36.6155 104.711 37.881C103.598 40.3127 101.249 41.4541 96.7742 41.7767C94.994 41.9504 91.5572 42 85.8209 42C77.538 42 74.8677 41.6278 72.5188 40.1142C69.6754 38.3276 68.8595 35.3252 68.8595 26.8885C68.8595 19.37 69.7249 16.6901 72.7413 14.9779C75.3375 13.4891 78.1067 13.0921 86.1671 13.0921C96.9225 13.0921 99.2467 13.3154 101.719 14.5065C104.043 15.6479 105.131 18.1789 105.131 22.3724V23.3153H96.7494C96.5764 20.1888 95.9335 19.9407 88.3429 19.9407C81.1726 19.9407 79.8869 20.1144 78.799 21.0573C77.7605 22.0002 77.538 23.1416 77.538 27.757C77.538 34.5807 78.1809 35.1018 86.6121 35.1018C93.1396 35.1018 94.0791 35.0522 95.2907 34.5559C96.5516 34.0348 97.0214 33.1416 97.0214 31.1068H105.477V31.0572Z" fill="white"/>
<path d="M143.654 13.5139C148.104 14.3079 150.256 16.566 150.874 21.1069C151.047 22.2483 151.121 24.556 151.121 27.9802C151.121 34.804 150.379 37.5583 147.931 39.5682C146.201 41.0074 143.778 41.7022 139.599 41.8511C138.041 41.9255 134.209 41.9752 131.39 41.9752C124.517 41.9752 121.03 41.8511 119.3 41.5037C116.11 40.9578 114.256 39.7667 113.168 37.6824C112.055 35.598 111.783 33.5137 111.783 27.3351C111.783 22.5709 111.857 21.4046 112.377 19.494C113.193 16.4915 114.874 14.8786 118.113 13.9357C120.536 13.2657 123.157 13.092 130.772 13.092C139.08 13.092 141.626 13.1665 143.654 13.5139ZM122.168 21.0076C121.006 21.9009 120.66 23.2905 120.66 27.3847C120.66 31.5534 121.006 33.067 122.094 33.9603C123.256 34.9033 124.69 35.0521 131.291 35.0521C138.857 35.0521 140.39 34.804 141.404 33.4393C142.22 32.4219 142.442 30.9827 142.442 27.211C142.442 20.0895 142.319 19.9902 131.514 19.9902C125.061 19.9902 123.28 20.2136 122.168 21.0076Z" fill="white"/>
<path d="M157.426 13.092H171.321L181.805 32.273L192.263 13.092H206.085V42H197.53L197.95 19.6925L185.192 41.9752H178.195L165.635 19.6677L165.882 41.9752H157.426V13.092Z" fill="white"/>
<path d="M212.314 13.092H234.32C239.883 13.092 241.317 13.2657 243.122 14.1838C246.015 15.623 247.103 18.2533 247.103 23.7123C247.103 29.2209 246.114 32.0745 243.74 33.5385C242.059 34.5807 240.106 34.8784 235.111 34.8784H221.042V41.9752H212.314V13.092ZM233.776 27.8562C237.361 27.8562 238.399 27.087 238.399 24.3574C238.399 20.8835 237.534 20.1143 233.776 20.1143H221.042V27.881H233.776V27.8562Z" fill="white"/>
<path d="M285.451 13.5139C289.901 14.3079 292.052 16.566 292.671 21.1069C292.844 22.2483 292.918 24.556 292.918 27.9802C292.918 34.804 292.176 37.5583 289.728 39.5682C287.997 41.0074 285.574 41.7022 281.396 41.8511C279.838 41.9255 276.006 41.9752 273.187 41.9752C266.314 41.9752 262.827 41.8511 261.097 41.5037C257.907 40.9578 256.053 39.7667 254.965 37.6824C253.852 35.598 253.58 33.5137 253.58 27.3351C253.58 22.5709 253.654 21.4046 254.173 19.494C254.989 16.4915 256.671 14.8786 259.91 13.9357C262.333 13.2657 264.954 13.092 272.569 13.092C280.877 13.092 283.423 13.1665 285.451 13.5139ZM263.965 21.0076C262.803 21.9009 262.456 23.2905 262.456 27.3847C262.456 31.5534 262.803 33.067 263.89 33.9603C265.053 34.9033 266.487 35.0521 273.088 35.0521C280.654 35.0521 282.187 34.804 283.201 33.4393C284.017 32.4219 284.239 30.9827 284.239 27.211C284.239 20.0895 284.116 19.9902 273.311 19.9902C266.857 19.9902 265.077 20.2136 263.965 21.0076Z" fill="white"/>
<path d="M299.15 13.092H307.902V34.8288H327.707V41.9752H299.125V13.092H299.15Z" fill="white"/>
<path d="M8.30764 27.5088L16.6153 13.0921H0L8.30764 27.5088Z" fill="#FF671D"/>
<path d="M8.30764 34.9033L2.84339 25.3997H0V41.9752H16.6153V25.3997H13.7719L8.30764 34.9033Z" fill="white"/>
<path d="M16.6174 8.43668V3.05176e-05L0.00209808 3.05176e-05V8.43668L16.6174 8.43668Z" fill="white"/>
</svg>
