<svg width="170" height="178" viewBox="0 0 170 178" fill="none" xmlns="http://www.w3.org/2000/svg">
<path d="M37.8052 92.8214C58.0022 92.8214 74.375 76.4854 74.375 56.3339C74.375 36.1823 58.0022 19.8463 37.8052 19.8463C17.6083 19.8463 1.23547 36.1823 1.23547 56.3339C1.23547 76.4854 17.6083 92.8214 37.8052 92.8214Z" stroke="#FF671D" stroke-width="2" stroke-miterlimit="10"/>
<path d="M121.94 176.767C142.137 176.767 158.51 160.431 158.51 140.28C158.51 120.128 142.137 103.792 121.94 103.792C101.743 103.792 85.3706 120.128 85.3706 140.28C85.3706 160.431 101.743 176.767 121.94 176.767Z" stroke="#FF671D" stroke-width="2" stroke-miterlimit="10"/>
<path d="M141.955 21.572H101.802L81.7878 56.3338L101.802 90.9723H141.955L162.093 56.3338L141.955 21.572Z" stroke="#FF671D" stroke-width="2" stroke-miterlimit="10"/>
<path d="M37.8052 172.823L74.2515 109.709H1.23547L37.8052 172.823Z" fill="#FF671D"/>
<path d="M164.811 21.2022V3.82129H124.288H119.469H79.0698V21.2022" stroke="#FF671D" stroke-width="2" stroke-miterlimit="10"/>
<mask id="mask0_6_451" style="mask-type:luminance" maskUnits="userSpaceOnUse" x="81" y="21" width="82" height="70">
<path d="M141.955 21.572H101.802L81.7878 56.3338L101.802 90.9723H141.955L162.093 56.3338L141.955 21.572Z" fill="white"/>
</mask>
<g mask="url(#mask0_6_451)">
<path d="M85.7413 0V113.161" stroke="#FF671D" stroke-width="2" stroke-miterlimit="10"/>
<path d="M96.7369 0V113.161" stroke="#FF671D" stroke-width="2" stroke-miterlimit="10"/>
<path d="M107.856 0V113.161" stroke="#FF671D" stroke-width="2" stroke-miterlimit="10"/>
<path d="M118.852 0V113.161" stroke="#FF671D" stroke-width="2" stroke-miterlimit="10"/>
<path d="M129.971 0V113.161" stroke="#FF671D" stroke-width="2" stroke-miterlimit="10"/>
<path d="M140.967 0V113.161" stroke="#FF671D" stroke-width="2" stroke-miterlimit="10"/>
<path d="M152.086 0V113.161" stroke="#FF671D" stroke-width="2" stroke-miterlimit="10"/>
<path d="M170 28.9681H56.5843" stroke="#FF671D" stroke-width="2" stroke-miterlimit="10"/>
<path d="M170 40.0624H56.5843" stroke="#FF671D" stroke-width="2" stroke-miterlimit="10"/>
<path d="M170 51.0332H56.5843" stroke="#FF671D" stroke-width="2" stroke-miterlimit="10"/>
<path d="M170 62.1274H56.5843" stroke="#FF671D" stroke-width="2" stroke-miterlimit="10"/>
<path d="M170 73.0984H56.5843" stroke="#FF671D" stroke-width="2" stroke-miterlimit="10"/>
<path d="M170 84.1925H56.5843" stroke="#FF671D" stroke-width="2" stroke-miterlimit="10"/>
</g>
</svg>
