<svg width="51" height="51" viewBox="0 0 51 51" fill="none" xmlns="http://www.w3.org/2000/svg">
<path d="M25.5 0C22.2 0 18.8 0.7 15.7 1.9C12.6 3.2 9.8 5.1 7.4 7.4C2.7 12.3 0 18.7 0 25.5C0 32.3 2.7 38.7 7.5 43.5C9.9 45.9 12.7 47.7 15.8 49C18.9 50.3 22.2 50.9 25.6 50.9C32.4 50.9 38.8 48.2 43.6 43.4C48.4 38.6 51.1 32.1 51.1 25.4C51.1 22.4 50.6 19.5 49.5 16.8L45.4 20.9C45.8 22.4 45.9 23.9 45.9 25.5C45.9 30.9 43.8 36.1 39.9 39.9C36.1 43.7 30.9 45.9 25.5 45.9C20.1 45.9 14.9 43.8 11.1 39.9C7.3 36.1 5.1 30.9 5.1 25.5C5.1 20.1 7.2 14.9 11.1 11.1C14.9 7.3 20.1 5.1 25.5 5.1C27 5.1 28.6 5.3 30.1 5.6L34.2 1.5C31.4 0.5 28.5 0 25.5 0ZM43.3 0L33.2 10.2V14L26.7 20.5C26.3 20.4 25.9 20.4 25.6 20.4C24.2 20.4 23 20.9 22 21.9C21 22.9 20.5 24.2 20.5 25.5C20.5 26.8 21 28.1 22 29.1C23 30.1 24.3 30.6 25.6 30.6C26.9 30.6 28.2 30.1 29.2 29.1C30.2 28.1 30.7 26.8 30.7 25.5C30.7 25.1 30.7 24.7 30.6 24.4L37.1 17.9H40.9L51 7.7H43.3V0ZM25.5 10.2C21.4 10.2 17.6 11.8 14.7 14.7C11.8 17.6 10.2 21.5 10.2 25.5C10.2 29.5 11.8 33.4 14.7 36.3C17.6 39.2 21.5 40.8 25.5 40.8C29.5 40.8 33.4 39.2 36.3 36.3C39.2 33.4 40.8 29.5 40.8 25.5H35.7C35.7 28.2 34.6 30.8 32.7 32.7C30.8 34.6 28.2 35.7 25.5 35.7C22.8 35.7 20.2 34.6 18.3 32.7C16.4 30.8 15.3 28.2 15.3 25.5C15.3 22.8 16.4 20.2 18.3 18.3C20.2 16.4 22.8 15.3 25.5 15.3V10.2Z" fill="#1E22AA"/>
<path d="M25.5002 10.2C21.4002 10.2 17.6002 11.8 14.7002 14.7C11.8002 17.6 10.2002 21.5 10.2002 25.5C10.2002 29.5 11.8002 33.4 14.7002 36.2999C17.6002 39.1999 21.5002 40.7999 25.5002 40.7999C29.5002 40.7999 33.4002 39.1999 36.3002 36.2999C39.2002 33.4 40.8002 29.5 40.8002 25.5H35.7002C35.7002 28.2 34.6002 30.8 32.7002 32.7C30.8002 34.6 28.2002 35.7 25.5002 35.7C22.8002 35.7 20.2002 34.6 18.3002 32.7C16.4002 30.8 15.3002 28.2 15.3002 25.5C15.3002 22.8 16.4002 20.2 18.3002 18.3C20.2002 16.4 22.8002 15.3 25.5002 15.3V10.2Z" fill="#FF671D"/>
</svg>
