<svg width="56" height="51" viewBox="0 0 56 51" fill="none" xmlns="http://www.w3.org/2000/svg">
<g clip-path="url(#clip0_13_1684)">
<path d="M30.1002 3.1C32.9002 1.1 36.2002 0.1 39.8002 0.1C41.8002 0.1 44.0002 0.6 46.5002 1.7C48.9002 2.8 50.8002 4.1 52.2002 5.5C55.1002 9.1 56.3002 13.2 55.9002 17.9C55.5002 22.6 53.9002 26.3 51.2002 28.9L29.9002 50.2C29.4002 50.7 28.7002 51 27.9002 51C27.1002 51 26.5002 50.7 25.9002 50.2C25.6002 49.9 25.4002 49.6 25.3002 49.3C25.2002 49 25.1002 48.6 25.1002 48.2C25.1002 47.4 25.4002 46.8 25.9002 46.2L38.8002 33.4C39.5002 32.8 39.5002 32.1 38.8002 31.5C38.1002 30.8 37.5002 30.8 36.8002 31.5L23.9002 44.4C23.6002 44.7 23.3002 44.9 23.0002 45C22.7002 45.1 22.3002 45.2 21.9002 45.2C21.1002 45.2 20.5002 44.9 19.9002 44.4C19.6002 44.1 19.4002 43.8 19.3002 43.5C19.2002 43.2 19.1002 42.8 19.1002 42.4C19.1002 41.6 19.4002 41 19.9002 40.4L32.8002 27.6C33.6002 26.9 33.6002 26.2 32.8002 25.5C32.2002 24.8 31.5002 24.8 30.8002 25.5L18.0002 38.5C17.7002 38.8 17.4002 39 17.1002 39.1C16.8002 39.2 16.4002 39.3 16.0002 39.3C15.2002 39.3 14.5002 39 14.0002 38.5C13.4002 38 13.2002 37.3 13.2002 36.6C13.2002 35.8 13.5002 35.1 14.1002 34.5L27.0002 21.6C27.7002 20.9 27.7002 20.3 27.0002 19.7C26.3002 19.1 25.6002 19.1 25.0002 19.7L12.0002 32.5C11.4002 33.1 10.7002 33.4 10.0002 33.4C9.20021 33.4 8.50021 33.1 8.00021 32.5C7.50021 31.9 7.20021 31.3 7.20021 30.5C7.20021 29.7 7.50021 29.1 8.00021 28.6C16.6002 20 21.9002 14.9 23.9002 12.9L33.9002 22.7C35.0002 23.7 36.3002 24.3 37.8002 24.3C39.8002 24.3 41.3002 23.5 42.5002 22C43.3002 20.9 43.6002 19.6 43.3002 18.2C43.1002 16.8 42.5002 15.6 41.5002 14.7L30.1002 3.1ZM35.9002 20.8L23.9002 8.9L4.10021 28.6C1.70021 26.2 0.400211 22.6 0.100211 17.7C-0.199789 12.8 1.10021 8.5 4.10021 5C7.40021 1.7 11.4002 0 16.1002 0C20.8002 0 24.7002 1.7 27.9002 5L39.9002 16.9C40.4002 17.4 40.7002 18.1 40.7002 18.8C40.7002 19.6 40.4002 20.2 39.9002 20.8C39.4002 21.3 38.7002 21.6 37.9002 21.6C37.1002 21.5 36.4002 21.3 35.9002 20.8Z" fill="#1E22AA"/>
<path d="M35.9002 20.8L23.9002 8.9L4.10021 28.6C1.70021 26.2 0.400211 22.6 0.100211 17.7C-0.199789 12.8 1.10021 8.5 4.10021 5C7.40021 1.7 11.4002 0 16.1002 0C20.8002 0 24.7002 1.7 27.9002 5L39.9002 16.9C40.4002 17.4 40.7002 18.1 40.7002 18.8C40.7002 19.6 40.4002 20.2 39.9002 20.8C39.4002 21.3 38.7002 21.6 37.9002 21.6C37.1002 21.5 36.4002 21.3 35.9002 20.8Z" fill="#FF671D"/>
</g>
<defs>
<clipPath id="clip0_13_1684">
<rect width="56" height="51" fill="white"/>
</clipPath>
</defs>
</svg>
