<svg width="64" height="51" viewBox="0 0 64 51" fill="none" xmlns="http://www.w3.org/2000/svg">
<g clip-path="url(#clip0_12_1651)">
<path d="M32.9955 39.6408C28.4364 36.7045 25.5 31.3727 25.5 25.1908C25.5 19.009 28.4364 13.7545 32.9955 10.8181H11.5909C5.17727 11.0499 0 17.4636 0 25.1908C0 32.9181 5.17727 39.409 11.5909 39.6408H32.9955Z" fill="#1E22AA"/>
<path d="M41.3408 11.7454C35.159 11.7454 30.1362 17.7726 30.1362 25.1908C30.1362 32.609 35.159 38.6363 41.3408 38.6363C47.5226 38.6363 52.5453 32.6863 52.5453 25.1908C52.5453 17.7726 47.5226 11.7454 41.3408 11.7454ZM41.3408 30.3681C38.9453 30.3681 37.0908 28.0499 37.0908 25.2681C37.0908 22.409 39.0226 20.1681 41.3408 20.1681C43.659 20.1681 45.5908 22.4863 45.5908 25.2681C45.5908 28.0499 43.7362 30.3681 41.3408 30.3681Z" fill="#1E22AA"/>
<path d="M32.9954 51H4.63627C4.09536 51 3.78627 50.3045 4.17263 49.9182L10.6635 43.2727C10.8181 43.1182 10.9726 43.1182 11.1272 43.1182H39.409C39.9499 43.1182 40.259 43.8136 39.8726 44.2L33.3817 50.8454C33.3044 50.9227 33.1499 51 32.9954 51Z" fill="#1E22AA"/>
<path d="M53.3181 0.850098C48.9136 0.850098 45.1272 4.2501 43.7363 8.88646C45.9 9.3501 47.9091 10.2774 49.6091 11.7456C50.15 9.89101 51.6181 8.5001 53.3181 8.5001C55.4818 8.5001 57.2591 10.5865 57.2591 13.2137C57.2591 15.5319 55.8681 17.3865 54.0909 17.8501C55.0954 20.091 55.6363 22.5637 55.6363 25.2683C60.1954 24.0319 63.5954 19.0865 63.5954 13.2137C63.5954 6.41373 59.0363 0.850098 53.3181 0.850098Z" fill="#FF671D"/>
<path d="M39.718 7.72727C40.877 4.48182 42.9634 1.77727 45.6679 0H26.118C21.868 0.154545 18.1589 3.32273 16.5361 7.72727H39.718Z" fill="#FF671D"/>
</g>
<defs>
<clipPath id="clip0_12_1651">
<rect width="63.5955" height="51" fill="white"/>
</clipPath>
</defs>
</svg>
