<svg width="51" height="51" viewBox="0 0 51 51" fill="none" xmlns="http://www.w3.org/2000/svg">
<g clip-path="url(#clip0_12_1593)">
<path d="M28.7002 51H19.7002C19.1002 51 18.5002 50.5 18.4002 49.9L17.5002 43.1C15.9002 42.5 14.5002 41.6 13.2002 40.6L6.90017 43.2C6.30017 43.4 5.70017 43.2 5.30017 42.6L0.200168 33.8C0.000167981 33.6 0.000167985 33.3 0.000167985 33C0.100168 32.7 0.200168 32.4 0.500168 32.2L5.90017 28C5.80017 27.2 5.70017 26.4 5.70017 25.5C5.70017 24.6 5.80017 23.8 5.90017 23L0.500168 18.8C0.200168 18.6 0.100168 18.3 0.000167985 18C-0.099832 17.7 0.000167981 17.4 0.200168 17.1L5.30017 8.3C5.60017 7.7 6.30017 7.5 6.90017 7.7L13.2002 10.3C14.5002 9.3 15.9002 8.4 17.5002 7.8L18.4002 1C18.5002 0.5 19.1002 0 19.7002 0H29.9002C30.5002 0 31.1002 0.5 31.2002 1.1L32.1002 7.9C33.7002 8.5 35.1002 9.4 36.4002 10.4L42.7002 7.8C43.3002 7.6 43.9002 7.8 44.3002 8.4L49.4002 17.2C49.7002 17.8 49.6002 18.4 49.1002 18.8L43.8002 23C43.9002 23.9 44.0002 24.7 44.0002 25.5V26C42.7002 25.7 41.5002 25.5 40.2002 25.5C37.9002 25.5 35.7002 26 33.7002 27C33.8002 26.5 33.9002 26 33.9002 25.5C33.9002 20.6 29.9002 16.6 25.0002 16.6C20.1002 16.6 16.1002 20.6 16.1002 25.5C16.1002 30.4 20.1002 34.4 25.0002 34.4C25.5002 34.4 26.0002 34.3 26.5002 34.2C25.0002 37 24.5002 40 25.0002 43C25.5002 46 26.7002 48.8 28.7002 51Z" fill="#1E22AA"/>
<path d="M50.9002 33H30.3848V36.2393H50.9002V33Z" fill="#FF671D"/>
<path d="M32.2207 38.7228V50.6001H49.0649V38.7228H32.2207ZM44.422 43.0418H36.8637V40.8823H44.422V43.0418Z" fill="#FF671D"/>
</g>
<defs>
<clipPath id="clip0_12_1593">
<rect width="50.9" height="51" fill="white"/>
</clipPath>
</defs>
</svg>
