<svg width="51" height="51" viewBox="0 0 51 51" fill="none" xmlns="http://www.w3.org/2000/svg">
<g clip-path="url(#clip0_13_1723)">
<path d="M40.8 23H32.7C31.6 20 28.8 17.9 25.5 17.9C22.2 17.9 19.4 20 18.3 23H10.2C9.4 23 5.1 22.7 5.1 17.9V15.3C5.1 10.6 9 10.2 10.2 10.2H36.2C37.3 13.2 40.1 15.3 43.4 15.3C45.4 15.3 47.4 14.5 48.8 13.1C50.2 11.7 51 9.7 51 7.7C51 5.7 50.2 3.7 48.8 2.3C47.3 0.8 45.4 0 43.4 0C40.1 0 37.3 2.1 36.2 5.1H10.2C6.1 5.1 0 7.8 0 15.3V17.9C0 25.3 6.1 28 10.2 28H18.3C19.4 31 22.2 33.1 25.5 33.1C28.8 33.1 31.6 31 32.7 28H40.8C41.6 28 45.9 28.3 45.9 33.1V35.6C45.9 40.3 42 40.7 40.8 40.7H14.8C13.7 37.7 10.9 35.6 7.6 35.6C5.6 35.6 3.6 36.4 2.2 37.8C0.8 39.4 0 41.3 0 43.3C0 45.3 0.8 47.3 2.2 48.7C3.7 50.2 5.6 51 7.6 51C10.9 51 13.7 48.9 14.8 45.9H40.8C44.9 45.9 51 43.2 51 35.7V33.2C51 25.7 44.9 23 40.8 23ZM43.4 5.1C44.1 5.1 44.7 5.4 45.2 5.8C45.7 6.3 45.9 6.9 45.9 7.6C45.9 8.3 45.6 9 45.2 9.5C44.7 10 44.1 10.2 43.4 10.2C42.7 10.2 42 9.9 41.5 9.5C41 9 40.8 8.4 40.8 7.7C40.8 7 41.1 6.4 41.5 5.9C41.9 5.4 42.7 5.1 43.4 5.1ZM7.6 45.9C6.9 45.9 6.3 45.6 5.8 45.2C5.3 44.7 5.1 44.1 5.1 43.4C5.1 42.7 5.4 42.1 5.8 41.6C6.3 41.1 6.9 40.9 7.6 40.9C8.3 40.9 8.9 41.2 9.4 41.6C9.9 42.1 10.1 42.7 10.1 43.4C10.1 44.1 9.8 44.7 9.4 45.2C9 45.6 8.3 45.9 7.6 45.9Z" fill="#1E22AA"/>
<path d="M25.6001 34.2C30.2945 34.2 34.1001 30.3944 34.1001 25.7C34.1001 21.0055 30.2945 17.2 25.6001 17.2C20.9057 17.2 17.1001 21.0055 17.1001 25.7C17.1001 30.3944 20.9057 34.2 25.6001 34.2Z" fill="#FF671D"/>
</g>
<defs>
<clipPath id="clip0_13_1723">
<rect width="51" height="51" fill="white"/>
</clipPath>
</defs>
</svg>
