<svg width="51" height="51" viewBox="0 0 51 51" fill="none" xmlns="http://www.w3.org/2000/svg">
<path d="M40.545 39.2445C39.882 37.2045 37.9695 35.7 35.7 35.7H33.15V28.05C33.15 27.3737 32.8813 26.7251 32.4031 26.2469C31.9249 25.7687 31.2763 25.5 30.6 25.5H15.3V20.4H20.4C21.0763 20.4 21.7249 20.1313 22.2031 19.6531C22.6813 19.1749 22.95 18.5263 22.95 17.85V12.75H28.05C29.4026 12.75 30.6998 12.2127 31.6562 11.2562C32.6127 10.2998 33.15 9.0026 33.15 7.65V6.6045C36.201 7.83453 38.9085 9.78556 41.0408 12.2906C43.173 14.7956 44.6665 17.78 45.3934 20.9883C46.1203 24.1966 46.0589 27.5333 45.2146 30.7127C44.3702 33.8921 42.7679 36.8196 40.545 39.2445ZM22.95 45.7215C12.8775 44.472 5.1 35.904 5.1 25.5C5.1 23.919 5.304 22.389 5.6355 20.9355L17.85 33.15V35.7C17.85 37.0526 18.3873 38.3498 19.3438 39.3062C20.3002 40.2627 21.5974 40.8 22.95 40.8M25.5 0C22.1513 0 18.8354 0.659577 15.7416 1.94107C12.6478 3.22257 9.83667 5.10088 7.46878 7.46878C2.6866 12.251 0 18.737 0 25.5C0 32.263 2.6866 38.749 7.46878 43.5312C9.83667 45.8991 12.6478 47.7774 15.7416 49.0589C18.8354 50.3404 22.1513 51 25.5 51C32.263 51 38.749 48.3134 43.5312 43.5312C48.3134 38.749 51 32.263 51 25.5C51 22.1513 50.3404 18.8354 49.0589 15.7416C47.7774 12.6478 45.8991 9.83667 43.5312 7.46878C41.1633 5.10088 38.3522 3.22257 35.2584 1.94107C32.1646 0.659577 28.8487 0 25.5 0Z" fill="#1E22AA"/>
</svg>
